<svg width="168" height="40" viewBox="0 0 168 40" fill="none" xmlns="http://www.w3.org/2000/svg">
<rect width="53.3333" height="40" rx="10" fill="#F45D21"/>
<ellipse cx="13.3333" cy="20" rx="8.88889" ry="8.88889" fill="white"/>
<rect x="26.6666" y="11.1111" width="22.2222" height="4.44444" fill="white"/>
<rect x="26.6666" y="11.1111" width="22.2222" height="4.44444" fill="white"/>
<rect x="26.6666" y="11.1111" width="22.2222" height="4.44444" fill="white"/>
<rect x="26.6666" y="17.7778" width="22.2222" height="4.44444" fill="white"/>
<rect x="26.6666" y="17.7778" width="22.2222" height="4.44444" fill="white"/>
<rect x="26.6666" y="17.7778" width="22.2222" height="4.44444" fill="white"/>
<rect x="26.6666" y="24.4445" width="22.2222" height="4.44444" fill="white"/>
<rect x="26.6666" y="24.4445" width="22.2222" height="4.44444" fill="white"/>
<rect x="26.6666" y="24.4445" width="22.2222" height="4.44444" fill="white"/>
<path d="M61.4489 28V14.9091H64.9091V17.2188H65.0625C65.3352 16.4517 65.7898 15.8466 66.4261 15.4034C67.0625 14.9602 67.8239 14.7386 68.7102 14.7386C69.608 14.7386 70.3722 14.9631 71.0028 15.4119C71.6335 15.8551 72.054 16.4574 72.2642 17.2188H72.4006C72.6676 16.4688 73.1506 15.8693 73.8494 15.4205C74.554 14.9659 75.3864 14.7386 76.3466 14.7386C77.5682 14.7386 78.5597 15.1278 79.321 15.9062C80.0881 16.679 80.4716 17.7756 80.4716 19.196V28H76.8494V19.9119C76.8494 19.1847 76.6563 18.6392 76.2699 18.2756C75.8835 17.9119 75.4006 17.7301 74.821 17.7301C74.1619 17.7301 73.6477 17.9403 73.2784 18.3608C72.9091 18.7756 72.7244 19.3239 72.7244 20.0057V28H69.2045V19.8352C69.2045 19.1932 69.0199 18.6818 68.6506 18.3011C68.2869 17.9205 67.8068 17.7301 67.2102 17.7301C66.8068 17.7301 66.4432 17.8324 66.1193 18.0369C65.8011 18.2358 65.5483 18.517 65.3608 18.8807C65.1733 19.2386 65.0795 19.6591 65.0795 20.142V28H61.4489ZM83.3395 28V14.9091H86.9702V28H83.3395ZM85.1634 13.2216C84.6236 13.2216 84.1605 13.0426 83.7741 12.6847C83.3935 12.321 83.2031 11.8864 83.2031 11.3807C83.2031 10.8807 83.3935 10.4517 83.7741 10.0938C84.1605 9.73011 84.6236 9.54829 85.1634 9.54829C85.7031 9.54829 86.1634 9.73011 86.544 10.0938C86.9304 10.4517 87.1236 10.8807 87.1236 11.3807C87.1236 11.8864 86.9304 12.321 86.544 12.6847C86.1634 13.0426 85.7031 13.2216 85.1634 13.2216ZM96.8416 14.9091V17.6364H88.9581V14.9091H96.8416ZM90.7479 11.7727H94.3786V23.9773C94.3786 24.3125 94.4297 24.5739 94.532 24.7614C94.6342 24.9432 94.7763 25.071 94.9581 25.1449C95.1456 25.2187 95.3615 25.2557 95.6058 25.2557C95.7763 25.2557 95.9467 25.2415 96.1172 25.2131C96.2876 25.179 96.4183 25.1534 96.5092 25.1364L97.0803 27.8381C96.8984 27.8949 96.6428 27.9602 96.3132 28.0341C95.9837 28.1136 95.5831 28.1619 95.1115 28.179C94.2365 28.2131 93.4695 28.0966 92.8104 27.8295C92.157 27.5625 91.6484 27.1477 91.2848 26.5852C90.9212 26.0227 90.7422 25.3125 90.7479 24.4545V11.7727ZM105.032 28.2557C103.685 28.2557 102.526 27.983 101.555 27.4375C100.589 26.8864 99.8445 26.108 99.3217 25.1023C98.799 24.0909 98.5376 22.8949 98.5376 21.5142C98.5376 20.1676 98.799 18.9858 99.3217 17.9688C99.8445 16.9517 100.58 16.1591 101.529 15.5909C102.484 15.0227 103.603 14.7386 104.887 14.7386C105.751 14.7386 106.555 14.8778 107.299 15.1562C108.049 15.429 108.702 15.8409 109.259 16.392C109.822 16.9432 110.259 17.6364 110.572 18.4716C110.884 19.3011 111.04 20.2727 111.04 21.3864V22.3835H99.9865V20.1335H107.623C107.623 19.6108 107.509 19.1477 107.282 18.7443C107.055 18.3409 106.739 18.0256 106.336 17.7983C105.938 17.5653 105.475 17.4489 104.947 17.4489C104.396 17.4489 103.907 17.5767 103.481 17.8324C103.06 18.0824 102.731 18.4205 102.492 18.8466C102.254 19.267 102.131 19.7358 102.126 20.2528V22.392C102.126 23.0398 102.245 23.5994 102.484 24.071C102.728 24.5426 103.072 24.9062 103.515 25.1619C103.958 25.4176 104.484 25.5455 105.092 25.5455C105.495 25.5455 105.864 25.4886 106.2 25.375C106.535 25.2614 106.822 25.0909 107.06 24.8636C107.299 24.6364 107.481 24.358 107.606 24.0284L110.964 24.25C110.793 25.0568 110.444 25.7614 109.915 26.3636C109.393 26.9602 108.717 27.4261 107.887 27.7614C107.063 28.0909 106.112 28.2557 105.032 28.2557ZM119.325 28.2557C117.984 28.2557 116.83 27.9716 115.864 27.4034C114.904 26.8295 114.165 26.0341 113.648 25.017C113.137 24 112.881 22.8295 112.881 21.5057C112.881 20.1648 113.14 18.9886 113.657 17.9773C114.18 16.9602 114.921 16.1676 115.881 15.5994C116.842 15.0256 117.984 14.7386 119.308 14.7386C120.45 14.7386 121.45 14.946 122.308 15.3608C123.165 15.7756 123.844 16.358 124.344 17.108C124.844 17.858 125.12 18.7386 125.171 19.75H121.745C121.648 19.0966 121.393 18.571 120.978 18.1733C120.569 17.7699 120.032 17.5682 119.367 17.5682C118.805 17.5682 118.313 17.7216 117.893 18.0284C117.478 18.3295 117.154 18.7699 116.921 19.3494C116.688 19.929 116.572 20.6307 116.572 21.4545C116.572 22.2898 116.685 23 116.913 23.5852C117.146 24.1705 117.472 24.6165 117.893 24.9233C118.313 25.2301 118.805 25.3835 119.367 25.3835C119.782 25.3835 120.154 25.2983 120.484 25.1278C120.819 24.9574 121.094 24.7102 121.31 24.3864C121.532 24.0568 121.677 23.6619 121.745 23.2017H125.171C125.114 24.2017 124.842 25.0824 124.353 25.8438C123.87 26.5994 123.202 27.1903 122.35 27.6165C121.498 28.0426 120.489 28.2557 119.325 28.2557ZM133.411 28.2557C132.087 28.2557 130.942 27.9744 129.976 27.4119C129.016 26.8437 128.274 26.054 127.751 25.0426C127.229 24.0256 126.967 22.8466 126.967 21.5057C126.967 20.1534 127.229 18.9716 127.751 17.9602C128.274 16.9432 129.016 16.1534 129.976 15.5909C130.942 15.0227 132.087 14.7386 133.411 14.7386C134.734 14.7386 135.876 15.0227 136.837 15.5909C137.803 16.1534 138.547 16.9432 139.07 17.9602C139.592 18.9716 139.854 20.1534 139.854 21.5057C139.854 22.8466 139.592 24.0256 139.07 25.0426C138.547 26.054 137.803 26.8437 136.837 27.4119C135.876 27.9744 134.734 28.2557 133.411 28.2557ZM133.428 25.4432C134.03 25.4432 134.533 25.2727 134.936 24.9318C135.339 24.5852 135.643 24.1136 135.848 23.517C136.058 22.9205 136.163 22.2415 136.163 21.4801C136.163 20.7188 136.058 20.0398 135.848 19.4432C135.643 18.8466 135.339 18.375 134.936 18.0284C134.533 17.6818 134.03 17.5085 133.428 17.5085C132.82 17.5085 132.308 17.6818 131.893 18.0284C131.484 18.375 131.175 18.8466 130.964 19.4432C130.76 20.0398 130.658 20.7188 130.658 21.4801C130.658 22.2415 130.76 22.9205 130.964 23.517C131.175 24.1136 131.484 24.5852 131.893 24.9318C132.308 25.2727 132.82 25.4432 133.428 25.4432ZM145.845 10.5455V28H142.214V10.5455H145.845ZM152.384 10.5455V28H148.754V10.5455H152.384ZM161.259 28.2557C159.912 28.2557 158.753 27.983 157.781 27.4375C156.815 26.8864 156.071 26.108 155.548 25.1023C155.026 24.0909 154.764 22.8949 154.764 21.5142C154.764 20.1676 155.026 18.9858 155.548 17.9688C156.071 16.9517 156.807 16.1591 157.756 15.5909C158.71 15.0227 159.83 14.7386 161.114 14.7386C161.977 14.7386 162.781 14.8778 163.526 15.1562C164.276 15.429 164.929 15.8409 165.486 16.392C166.048 16.9432 166.486 17.6364 166.798 18.4716C167.111 19.3011 167.267 20.2727 167.267 21.3864V22.3835H156.213V20.1335H163.849C163.849 19.6108 163.736 19.1477 163.509 18.7443C163.281 18.3409 162.966 18.0256 162.562 17.7983C162.165 17.5653 161.702 17.4489 161.173 17.4489C160.622 17.4489 160.134 17.5767 159.707 17.8324C159.287 18.0824 158.957 18.4205 158.719 18.8466C158.48 19.267 158.358 19.7358 158.352 20.2528V22.392C158.352 23.0398 158.472 23.5994 158.71 24.071C158.955 24.5426 159.298 24.9062 159.741 25.1619C160.185 25.4176 160.71 25.5455 161.318 25.5455C161.722 25.5455 162.091 25.4886 162.426 25.375C162.761 25.2614 163.048 25.0909 163.287 24.8636C163.526 24.6364 163.707 24.358 163.832 24.0284L167.19 24.25C167.02 25.0568 166.67 25.7614 166.142 26.3636C165.619 26.9602 164.943 27.4261 164.114 27.7614C163.29 28.0909 162.338 28.2557 161.259 28.2557Z" fill="black"/>
</svg>
